<svg width="24" height="24" viewBox="0 0 24 24" fill="none" xmlns="http://www.w3.org/2000/svg">
    <path d="M12 4C6.486 4 2 8.486 2 14C1.99871 15.5434 2.35864 17.0656 3.051 18.445C3.221 18.785 3.567 19 3.946 19H20.053C20.432 19 20.779 18.785 20.949 18.445C21.6414 17.0656 22.0013 15.5434 22 14C22 8.486 17.514 4 12 4ZM19.41 17H4.59C4.19924 16.0481 3.99879 15.0289 4 14C4 9.589 7.589 6 12 6C16.411 6 20 9.589 20 14C20.0012 15.0289 19.8008 16.0481 19.41 17Z" fill="#F8FAFC"/>
    <path d="M10.9389 12.939C10.7262 13.0781 10.5515 13.268 10.4306 13.4916C10.3097 13.7151 10.2463 13.9653 10.2463 14.2195C10.2463 14.4737 10.3097 14.7238 10.4306 14.9474C10.5515 15.171 10.7262 15.3609 10.9389 15.5C11.107 15.6106 11.2953 15.6869 11.4929 15.7247C11.6906 15.7624 11.8937 15.7608 12.0907 15.72C12.2877 15.6791 12.4748 15.5998 12.6411 15.4865C12.8074 15.3733 12.9497 15.2283 13.0599 15.06L17.0219 9.02199C17.0251 9.01671 17.0268 9.01066 17.0268 9.00449C17.0268 8.99833 17.0251 8.99228 17.0219 8.98699C17.0172 8.97978 17.0099 8.9747 17.0015 8.97283C16.9931 8.97096 16.9843 8.97246 16.9769 8.97699L10.9389 12.939Z" fill="#F8FAFC"/>
</svg>